<?xml version="1.0" encoding="UTF-8"?>
<svg xmlns="http://www.w3.org/2000/svg" xmlns:xlink="http://www.w3.org/1999/xlink" width="80pt" height="255pt" viewBox="0 0 80 255" version="1.1">
<g id="surface1">
<rect x="0" y="0" width="80" height="255" style="fill:rgb(100%,100%,100%);fill-opacity:1;stroke:none;"/>
<path style="fill-rule:nonzero;fill:rgb(0%,39.215088%,0%);fill-opacity:0.098039;stroke-width:1.5;stroke-linecap:round;stroke-linejoin:round;stroke:rgb(0%,39.215088%,0%);stroke-opacity:1;stroke-miterlimit:10;" d="M 160.674201 551.995383 C 160.674201 540.876061 158.190886 529.895731 153.428109 519.851276 L 85.665109 551.995383 Z M 160.674201 551.995383 " transform="matrix(0.421563,0,0,0.421563,-23,-63.33)"/>
<path style=" stroke:none;fill-rule:nonzero;fill:rgb(0%,39.215088%,0%);fill-opacity:1;" d="M 28.515625 170.394531 L 27.140625 175.652344 C 27.558594 175.652344 27.933594 175.566406 28.265625 175.398438 C 28.351562 175.234375 28.476562 175.109375 28.640625 175.023438 C 28.890625 174.691406 29.101562 174.355469 29.265625 174.023438 C 29.351562 173.855469 29.394531 173.691406 29.394531 173.523438 C 29.394531 173.273438 29.308594 173.0625 29.140625 172.898438 C 29.058594 172.8125 29.015625 172.730469 29.015625 172.648438 C 29.015625 172.480469 29.058594 172.355469 29.140625 172.273438 C 29.226562 172.273438 29.308594 172.273438 29.394531 172.273438 C 29.558594 172.273438 29.644531 172.355469 29.644531 172.523438 C 29.726562 172.605469 29.769531 172.6875 29.769531 172.773438 C 29.769531 173.105469 29.683594 173.523438 29.519531 174.023438 C 29.351562 174.355469 29.140625 174.691406 28.890625 175.023438 C 28.390625 175.609375 27.808594 175.902344 27.140625 175.902344 L 26.890625 177.027344 C 26.804688 177.277344 26.765625 177.402344 26.765625 177.402344 C 26.765625 177.402344 26.722656 177.402344 26.640625 177.402344 C 26.554688 177.402344 26.515625 177.359375 26.515625 177.277344 C 26.515625 177.277344 26.597656 177.027344 26.765625 176.527344 C 26.847656 176.359375 26.890625 176.152344 26.890625 175.902344 C 26.222656 175.816406 25.804688 175.566406 25.636719 175.148438 C 25.554688 174.984375 25.511719 174.816406 25.511719 174.648438 C 25.511719 174.484375 25.636719 174.066406 25.886719 173.398438 C 26.054688 173.0625 26.140625 172.8125 26.140625 172.648438 C 26.140625 172.480469 26.054688 172.398438 25.886719 172.398438 C 25.554688 172.398438 25.304688 172.6875 25.136719 173.273438 C 25.136719 173.273438 25.136719 173.3125 25.136719 173.398438 C 25.054688 173.480469 25.011719 173.523438 25.011719 173.523438 C 24.929688 173.523438 24.886719 173.523438 24.886719 173.523438 C 24.886719 173.355469 24.929688 173.1875 25.011719 173.023438 C 25.261719 172.523438 25.554688 172.273438 25.886719 172.273438 C 26.222656 172.273438 26.429688 172.398438 26.515625 172.648438 C 26.597656 172.730469 26.640625 172.8125 26.640625 172.898438 C 26.640625 172.980469 26.597656 173.105469 26.515625 173.273438 C 26.179688 174.023438 26.011719 174.523438 26.011719 174.773438 C 26.011719 175.273438 26.347656 175.566406 27.015625 175.652344 L 28.265625 170.394531 C 28.351562 170.3125 28.390625 170.269531 28.390625 170.269531 C 28.476562 170.269531 28.515625 170.269531 28.515625 170.269531 C 28.515625 170.269531 28.515625 170.3125 28.515625 170.394531 Z M 28.515625 170.394531 "/>
<path style="fill-rule:nonzero;fill:rgb(0%,39.215088%,0%);fill-opacity:0.098039;stroke-width:1.5;stroke-linecap:round;stroke-linejoin:round;stroke:rgb(0%,39.215088%,0%);stroke-opacity:1;stroke-miterlimit:10;" d="M 114.583695 538.277246 C 109.283527 527.120949 98.025304 519.995374 85.664423 519.995374 L 85.664423 552.000233 Z M 114.583695 538.277246 " transform="matrix(0.421567,0,0,0.421567,-23,-63.33)"/>
<path style=" stroke:none;fill-rule:nonzero;fill:rgb(0%,39.215088%,0%);fill-opacity:1;" d="M 3.394531 157.441406 C 3.394531 158.277344 3.183594 159.113281 2.769531 159.945312 C 2.433594 160.695312 2.015625 161.199219 1.515625 161.449219 C 1.351562 161.53125 1.183594 161.574219 1.015625 161.574219 C 0.597656 161.574219 0.308594 161.28125 0.140625 160.695312 C 0.140625 160.445312 0.140625 160.195312 0.140625 159.945312 C 0.140625 159.113281 0.347656 158.234375 0.765625 157.316406 C 1.097656 156.652344 1.515625 156.191406 2.015625 155.941406 C 2.183594 155.859375 2.308594 155.816406 2.394531 155.816406 C 2.894531 155.816406 3.226562 156.148438 3.394531 156.816406 C 3.394531 156.984375 3.394531 157.191406 3.394531 157.441406 Z M 0.890625 158.570312 L 2.644531 158.570312 C 2.808594 157.820312 2.894531 157.277344 2.894531 156.941406 C 2.894531 156.359375 2.769531 156.023438 2.519531 155.941406 C 2.519531 155.941406 2.476562 155.941406 2.394531 155.941406 C 2.140625 155.941406 1.851562 156.234375 1.515625 156.816406 C 1.351562 157.152344 1.183594 157.695312 1.015625 158.445312 C 1.015625 158.527344 0.972656 158.570312 0.890625 158.570312 Z M 2.519531 158.820312 L 0.890625 158.820312 C 0.722656 159.488281 0.640625 159.988281 0.640625 160.320312 C 0.640625 160.988281 0.765625 161.324219 1.015625 161.324219 C 1.351562 161.324219 1.683594 161.03125 2.015625 160.445312 C 2.183594 160.03125 2.351562 159.488281 2.519531 158.820312 Z M 2.519531 158.820312 "/>
<path style="fill-rule:nonzero;fill:rgb(0%,39.215088%,0%);fill-opacity:0.098039;stroke-width:1.5;stroke-linecap:round;stroke-linejoin:round;stroke:rgb(0%,39.215088%,0%);stroke-opacity:1;stroke-miterlimit:10;" d="M 85.663738 302.083791 C 100.489263 302.083791 115.138736 298.775845 128.528038 292.428667 L 85.663738 202.076357 Z M 85.663738 302.083791 " transform="matrix(0.42157,0,0,0.42157,-23,-63.33)"/>
<path style=" stroke:none;fill-rule:nonzero;fill:rgb(0%,39.215088%,0%);fill-opacity:1;" d="M 5.332031 54.472656 L 3.953125 59.726562 C 4.371094 59.726562 4.746094 59.644531 5.082031 59.476562 C 5.164062 59.3125 5.289062 59.1875 5.457031 59.101562 C 5.707031 58.769531 5.914062 58.433594 6.082031 58.101562 C 6.164062 57.933594 6.207031 57.765625 6.207031 57.601562 C 6.207031 57.351562 6.125 57.140625 5.957031 56.976562 C 5.871094 56.890625 5.832031 56.808594 5.832031 56.722656 C 5.832031 56.558594 5.871094 56.433594 5.957031 56.347656 C 6.039062 56.347656 6.125 56.347656 6.207031 56.347656 C 6.375 56.347656 6.457031 56.433594 6.457031 56.597656 C 6.539062 56.683594 6.582031 56.765625 6.582031 56.847656 C 6.582031 57.183594 6.5 57.601562 6.332031 58.101562 C 6.164062 58.433594 5.957031 58.769531 5.707031 59.101562 C 5.207031 59.6875 4.621094 59.976562 3.953125 59.976562 L 3.703125 61.105469 C 3.621094 61.355469 3.578125 61.480469 3.578125 61.480469 C 3.578125 61.480469 3.535156 61.480469 3.453125 61.480469 C 3.371094 61.480469 3.328125 61.4375 3.328125 61.355469 C 3.328125 61.355469 3.410156 61.105469 3.578125 60.605469 C 3.660156 60.4375 3.703125 60.230469 3.703125 59.976562 C 3.035156 59.894531 2.617188 59.644531 2.453125 59.226562 C 2.367188 59.0625 2.328125 58.894531 2.328125 58.726562 C 2.328125 58.558594 2.453125 58.144531 2.703125 57.476562 C 2.871094 57.140625 2.953125 56.890625 2.953125 56.722656 C 2.953125 56.558594 2.871094 56.472656 2.703125 56.472656 C 2.367188 56.472656 2.117188 56.765625 1.953125 57.351562 C 1.953125 57.351562 1.953125 57.390625 1.953125 57.476562 C 1.867188 57.558594 1.828125 57.601562 1.828125 57.601562 C 1.742188 57.601562 1.699219 57.601562 1.699219 57.601562 C 1.699219 57.433594 1.742188 57.265625 1.828125 57.101562 C 2.078125 56.597656 2.367188 56.347656 2.703125 56.347656 C 3.035156 56.347656 3.246094 56.472656 3.328125 56.722656 C 3.410156 56.808594 3.453125 56.890625 3.453125 56.976562 C 3.453125 57.058594 3.410156 57.183594 3.328125 57.351562 C 2.996094 58.101562 2.828125 58.601562 2.828125 58.851562 C 2.828125 59.351562 3.160156 59.644531 3.828125 59.726562 L 5.082031 54.472656 C 5.164062 54.386719 5.207031 54.347656 5.207031 54.347656 C 5.289062 54.347656 5.332031 54.347656 5.332031 54.347656 C 5.332031 54.347656 5.332031 54.386719 5.332031 54.472656 Z M 5.332031 54.472656 "/>
<path style="fill:none;stroke-width:1.5;stroke-linecap:round;stroke-linejoin:round;stroke:rgb(0%,39.215088%,0%);stroke-opacity:1;stroke-miterlimit:10;" d="M 221.185801 487.695465 L 85.663053 202.084006 " transform="matrix(0.421574,0,0,0.421574,-23,-63.33)"/>
<path style="fill:none;stroke-width:1.5;stroke-linecap:round;stroke-linejoin:round;stroke:rgb(0%,0%,0%);stroke-opacity:1;stroke-miterlimit:10;" d="M 221.185801 487.695465 L 85.663053 487.695465 " transform="matrix(0.421574,0,0,0.421574,-23,-63.33)"/>
<path style="fill:none;stroke-width:1.5;stroke-linecap:round;stroke-linejoin:round;stroke:rgb(0%,0%,0%);stroke-opacity:1;stroke-miterlimit:10;" d="M 235.668371 552.000667 L 85.663053 552.000667 " transform="matrix(0.421574,0,0,0.421574,-23,-63.33)"/>
<path style="fill:none;stroke-width:1.5;stroke-linecap:round;stroke-linejoin:round;stroke:rgb(0%,0%,0%);stroke-opacity:1;stroke-miterlimit:10;" d="M 85.663053 552.000667 L 221.185801 487.695465 " transform="matrix(0.421574,0,0,0.421574,-23,-63.33)"/>
<path style="fill:none;stroke-width:1.5;stroke-linecap:round;stroke-linejoin:round;stroke:rgb(0%,0%,0%);stroke-opacity:1;stroke-miterlimit:10;" d="M 85.663053 751.995403 L 85.663053 167.003388 " transform="matrix(0.421574,0,0,0.421574,-23,-63.33)"/>
<path style=" stroke:none;fill-rule:evenodd;fill:rgb(0%,0%,0%);fill-opacity:1;" d="M 13.113281 0.75 L 14.695312 7.074219 L 11.535156 7.074219 Z M 13.113281 0.75 "/>
<path style="fill-rule:nonzero;fill:rgb(26.66626%,26.66626%,26.66626%);fill-opacity:1;stroke-width:1;stroke-linecap:round;stroke-linejoin:round;stroke:rgb(0%,0%,0%);stroke-opacity:1;stroke-miterlimit:10;" d="M 88.665198 552.000667 C 88.665198 553.659259 87.321645 555.002812 85.663053 555.002812 C 84.013726 555.002812 82.670174 553.659259 82.670174 552.000667 C 82.670174 550.342074 84.013726 548.998522 85.663053 548.998522 C 87.321645 548.998522 88.665198 550.342074 88.665198 552.000667 Z M 88.665198 552.000667 " transform="matrix(0.421574,0,0,0.421574,-23,-63.33)"/>
<path style=" stroke:none;fill-rule:nonzero;fill:rgb(26.66626%,26.66626%,26.66626%);fill-opacity:1;" d="M 4.128906 172.996094 L 3.300781 170.890625 L 2.464844 172.996094 Z M 4.859375 174.859375 L 4.328125 173.511719 L 2.265625 173.511719 L 1.726562 174.859375 L 1.085938 174.859375 L 3.019531 169.984375 L 3.703125 169.984375 L 5.609375 174.859375 Z M 4.859375 174.859375 "/>
<path style="fill-rule:nonzero;fill:rgb(49.01886%,49.01886%,100%);fill-opacity:1;stroke-width:1;stroke-linecap:round;stroke-linejoin:round;stroke:rgb(0%,0%,0%);stroke-opacity:1;stroke-miterlimit:10;" d="M 226.189376 487.695465 C 226.189376 490.456697 223.947033 492.69904 221.185801 492.69904 C 218.424569 492.69904 216.191493 490.456697 216.191493 487.695465 C 216.191493 484.943499 218.424569 482.701157 221.185801 482.701157 C 223.947033 482.701157 226.189376 484.943499 226.189376 487.695465 Z M 226.189376 487.695465 " transform="matrix(0.421574,0,0,0.421574,-23,-63.33)"/>
<path style=" stroke:none;fill-rule:nonzero;fill:rgb(49.01886%,49.01886%,100%);fill-opacity:1;" d="M 76.679688 152.214844 C 75.921875 152.214844 75.335938 151.992188 74.921875 151.550781 C 74.511719 151.101562 74.304688 150.476562 74.304688 149.660156 C 74.304688 148.847656 74.515625 148.214844 74.9375 147.769531 C 75.355469 147.320312 75.949219 147.097656 76.710938 147.097656 C 77.148438 147.097656 77.660156 147.171875 78.246094 147.3125 L 78.246094 147.960938 C 77.578125 147.730469 77.066406 147.617188 76.703125 147.617188 C 76.171875 147.617188 75.761719 147.792969 75.476562 148.152344 C 75.183594 148.511719 75.035156 149.015625 75.035156 149.664062 C 75.035156 150.289062 75.191406 150.777344 75.503906 151.136719 C 75.8125 151.496094 76.234375 151.675781 76.769531 151.675781 C 77.234375 151.675781 77.726562 151.535156 78.253906 151.25 L 78.253906 151.84375 C 77.773438 152.089844 77.246094 152.214844 76.679688 152.214844 Z M 76.679688 152.214844 "/>
<path style="fill-rule:nonzero;fill:rgb(26.66626%,26.66626%,26.66626%);fill-opacity:1;stroke-width:1;stroke-linecap:round;stroke-linejoin:round;stroke:rgb(0%,0%,0%);stroke-opacity:1;stroke-miterlimit:10;" d="M 88.665198 202.084006 C 88.665198 203.742599 87.321645 205.076885 85.663053 205.076885 C 84.013726 205.076885 82.670174 203.742599 82.670174 202.084006 C 82.670174 200.416148 84.013726 199.081861 85.663053 199.081861 C 87.321645 199.081861 88.665198 200.416148 88.665198 202.084006 Z M 88.665198 202.084006 " transform="matrix(0.421574,0,0,0.421574,-23,-63.33)"/>
<path style=" stroke:none;fill-rule:nonzero;fill:rgb(26.66626%,26.66626%,26.66626%);fill-opacity:1;" d="M 15.570312 19.296875 L 15.570312 14.425781 L 18.292969 14.425781 L 18.292969 14.9375 L 16.261719 14.9375 L 16.261719 16.507812 L 17.964844 16.507812 L 17.964844 17.019531 L 16.261719 17.019531 L 16.261719 18.78125 L 18.4375 18.78125 L 18.4375 19.296875 Z M 15.570312 19.296875 "/>
<path style="fill-rule:nonzero;fill:rgb(26.66626%,26.66626%,26.66626%);fill-opacity:1;stroke-width:1;stroke-linecap:round;stroke-linejoin:round;stroke:rgb(0%,0%,0%);stroke-opacity:1;stroke-miterlimit:10;" d="M 88.665198 487.695465 C 88.665198 489.363324 87.321645 490.69761 85.663053 490.69761 C 84.013726 490.69761 82.670174 489.363324 82.670174 487.695465 C 82.670174 486.036873 84.013726 484.702586 85.663053 484.702586 C 87.321645 484.702586 88.665198 486.036873 88.665198 487.695465 Z M 88.665198 487.695465 " transform="matrix(0.421574,0,0,0.421574,-23,-63.33)"/>
<path style=" stroke:none;fill-rule:nonzero;fill:rgb(26.66626%,26.66626%,26.66626%);fill-opacity:1;" d="M 3.761719 143.664062 L 3.761719 138.789062 L 4.453125 138.789062 L 4.453125 143.664062 Z M 3.761719 143.664062 "/>
<path style="fill-rule:nonzero;fill:rgb(26.66626%,26.66626%,26.66626%);fill-opacity:1;stroke-width:1;stroke-linecap:round;stroke-linejoin:round;stroke:rgb(0%,0%,0%);stroke-opacity:1;stroke-miterlimit:10;" d="M 238.670515 552.000667 C 238.670515 553.659259 237.317697 555.002812 235.668371 555.002812 C 234.009778 555.002812 232.666226 553.659259 232.666226 552.000667 C 232.666226 550.342074 234.009778 548.998522 235.668371 548.998522 C 237.317697 548.998522 238.670515 550.342074 238.670515 552.000667 Z M 238.670515 552.000667 " transform="matrix(0.421574,0,0,0.421574,-23,-63.33)"/>
<path style=" stroke:none;fill-rule:nonzero;fill:rgb(26.66626%,26.66626%,26.66626%);fill-opacity:1;" d="M 77.570312 167.753906 L 77.570312 167.144531 C 77.835938 167.230469 78.066406 167.269531 78.269531 167.269531 C 78.53125 167.269531 78.71875 167.195312 78.824219 167.042969 C 78.925781 166.894531 78.980469 166.628906 78.980469 166.253906 L 78.980469 161.976562 L 79.671875 161.976562 L 79.671875 166.234375 C 79.671875 167.292969 79.167969 167.824219 78.164062 167.824219 C 78.007812 167.824219 77.816406 167.800781 77.570312 167.753906 Z M 77.570312 167.753906 "/>
</g>
</svg>
